<?xml version="1.0" encoding="UTF-8" standalone="no"?>
<svg
   xmlns:dc="http://purl.org/dc/elements/1.1/"
   xmlns:cc="http://creativecommons.org/ns#"
   xmlns:rdf="http://www.w3.org/1999/02/22-rdf-syntax-ns#"
   xmlns:svg="http://www.w3.org/2000/svg"
   xmlns="http://www.w3.org/2000/svg"
   xml:space="preserve"
   style="enable-background:new 0 0 512 512;"
   viewBox="0 0 512 512"
   y="0px"
   x="0px"
   id="Icon"
   version="1.1">

  <g
     style="fill:var(--icon-main)"
     id="icon-maincolor"
     transform="matrix(0.78728602,0,0,0.78728602,-137.44374,-65.208521)">
    <path
        d="M 804.62,382.84 A 20.76,20.76 0 0 0 784.2,400.06 L 726.83,420 c 2.94,-26.81 -2.09,-54.35 -12.62,-72.4 -8.49,-14.56 -9.61,-26.43 -10.69,-37.92 -1,-10.09 -1.86,-19.63 -7.43,-29.72 a 34.88,34.88 0 0 0 -10.25,-11.61 c -0.24,-0.17 -0.48,-0.36 -0.73,-0.53 -0.53,-0.37 -1.11,-0.71 -1.67,-1 -0.39,-0.24 -0.77,-0.48 -1.17,-0.69 -0.4,-0.21 -1.06,-0.54 -1.59,-0.8 -0.53,-0.26 -1,-0.48 -1.48,-0.7 -0.48,-0.22 -1,-0.42 -1.55,-0.63 -0.55,-0.21 -1.14,-0.43 -1.73,-0.63 -0.59,-0.2 -1,-0.33 -1.56,-0.49 -0.56,-0.16 -1.28,-0.37 -1.94,-0.53 -0.66,-0.16 -1,-0.26 -1.59,-0.38 -0.7,-0.15 -1.4,-0.29 -2.12,-0.41 q -0.81,-0.15 -1.65,-0.27 c -0.74,-0.11 -1.51,-0.2 -2.28,-0.29 l -1.72,-0.17 c -0.79,-0.07 -1.61,-0.11 -2.42,-0.15 l -1.8,-0.08 c -0.84,0 -1.71,0 -2.58,0 h -1.86 c -0.92,0 -1.87,0.08 -2.81,0.13 -0.62,0 -1.22,0.05 -1.85,0.1 -1.08,0.08 -2.19,0.19 -3.31,0.31 -0.52,0.05 -1,0.08 -1.55,0.14 -1.67,0.19 -3.37,0.42 -5.11,0.68 a 27.31,27.31 0 0 0 -3.55,0.79 c -17.76,5.16 -22.49,26.72 -26,42.73 -0.79,3.59 -1.53,7 -2.32,9.73 -1.38,4.77 -7,11.28 -13,18.18 -3.61,4.18 -7.55,8.78 -11.3,13.76 l -0.44,-1.18 c -0.37,-1 -0.74,-2 -1.11,-2.95 -0.2,-0.52 -0.4,-1 -0.59,-1.54 l -1.42,-3.6 c -1.26,-3.18 -2.35,-5.92 -3.07,-8.15 -4.58,-14.21 -1.8,-34.59 -0.13,-39.33 0,0 0,-0.06 0.06,-0.1 a 114.93,114.93 0 0 0 9.4,-7.77 l 0.27,-0.25 1.27,-1.23 0.19,-0.19 c 0.38,-0.37 0.75,-0.75 1.11,-1.13 l 0.31,-0.32 q 0.53,-0.56 1,-1.11 l 0.32,-0.36 c 0.33,-0.37 0.63,-0.74 0.94,-1.11 0.1,-0.13 0.21,-0.25 0.32,-0.38 0.25,-0.32 0.49,-0.65 0.73,-1 l 0.4,-0.53 c 0.18,-0.25 0.34,-0.51 0.51,-0.76 0.17,-0.25 0.34,-0.48 0.48,-0.73 0.14,-0.25 0.26,-0.46 0.4,-0.68 0.14,-0.22 0.31,-0.53 0.44,-0.79 0.13,-0.26 0.27,-0.6 0.41,-0.9 0.14,-0.3 0.17,-0.37 0.24,-0.55 a 10.42,10.42 0 0 0 0.45,-1.41 5.91,5.91 0 0 0 -3.84,-7 l -0.6,-0.2 -0.19,-0.06 -1,-0.33 v 0 l -1.15,-0.37 -0.65,-0.21 -0.73,-0.23 c -0.56,-0.18 -1.15,-0.37 -1.79,-0.56 l -0.35,-0.11 -1.29,-0.4 -0.34,-0.1 c -1.44,-0.43 -3,-0.89 -4.62,-1.35 h -0.11 c -1.69,-0.47 -3.45,-0.95 -5.24,-1.41 l -0.23,-0.06 c -1.17,-0.29 -2.35,-0.58 -3.52,-0.85 v 0 l -0.68,-0.16 v 0 l -1.7,-0.36 v 0 l -1,-0.22 v 0 c -0.75,-0.16 -1.48,-0.29 -2.21,-0.42 l -0.42,-0.08 v 0 a 56.29,56.29 0 0 0 -5.85,-0.72 c -0.39,0 -0.78,-0.06 -1.13,-0.07 a 63.12,63.12 0 0 0 -24.92,-4.5 h -0.8 c -0.67,0 -1.34,0.05 -2,0.1 -1.29,0.09 -2.6,0.23 -3.92,0.41 h -0.12 c -0.67,0.1 -1.33,0.19 -2,0.31 -0.15,0 -0.29,0.12 -0.44,0.16 -11.41,2.26 -22.92,8.47 -31.53,21.79 -14.83,22.95 -15.65,38.26 -16.1,46.49 0,0.73 -0.07,1.41 -0.11,2 -1.1,2 -6.2,7.58 -10.72,12.5 -5.1,5.53 -11.56,12.57 -18.2,20.65 l -1.41,-3.07 -0.71,-1.56 -1,-2.25 c -0.3,-0.66 -0.59,-1.32 -0.88,-2 l -0.87,-2 -0.94,-2.19 -0.78,-1.67 -0.9,-2.23 c -0.21,-0.52 -0.43,-1.06 -0.63,-1.57 -0.3,-0.75 -0.55,-1.45 -0.81,-2.16 -0.17,-0.44 -0.35,-0.91 -0.5,-1.33 -0.26,-0.74 -0.46,-1.41 -0.67,-2.08 -0.11,-0.32 -0.24,-0.69 -0.32,-1 -0.21,-0.7 -0.33,-1.28 -0.45,-1.87 5,-1.08 13.15,-3.16 19.51,-6.27 v 0 c 0.93,-0.46 1.83,-0.93 2.67,-1.43 a 5.91,5.91 0 0 0 2.17,-7.85 l -0.47,-0.85 a 1.62,1.62 0 0 1 -0.1,-0.18 l -0.81,-1.41 -0.05,-0.08 A 109.86,109.86 0 0 0 447,292.17 v 0 c -0.2,-0.23 -0.39,-0.46 -0.59,-0.68 v -0.05 c -0.32,-0.35 -0.64,-0.68 -1,-1 v -0.05 c -0.34,-0.36 -0.67,-0.73 -1,-1.09 h -0.05 c -0.35,-0.37 -0.73,-0.71 -1.09,-1.06 -0.36,-0.35 -0.68,-0.67 -1,-1 h -0.05 c -0.39,-0.36 -0.79,-0.69 -1.2,-1 -0.41,-0.31 -0.65,-0.57 -1,-0.84 v 0 c -0.43,-0.34 -0.86,-0.64 -1.29,-1 -0.43,-0.36 -0.64,-0.49 -1,-0.71 h -0.05 c -0.38,-0.26 -0.77,-0.48 -1.16,-0.71 -0.39,-0.23 -0.74,-0.48 -1.12,-0.69 -4.4,-7.35 -22.57,-29 -76.44,-9.72 -37.64,13.51 -38.41,37 -38.91,52.52 a 61.73,61.73 0 0 1 -0.77,9.56 c -1.48,3.7 -12.28,34.75 -17.28,51.04 -1.23,4.1 -2.93,9.08 -4.73,14.36 -4.45,13.1 -9.72,28.65 -12.54,43.52 h -17.41 a 12.56,12.56 0 0 0 -9.8,4.7 l -28,34.87 a 12.4,12.4 0 0 0 -1.5,2.41 H 212.6 a 20.75,20.75 0 1 0 -2.13,25.69 h 0.52 78.32 c 4.78,26.1 11.56,52.52 18,58.33 a 22.2,22.2 0 0 0 15.15,5.52 c 8,0 16.84,-3.48 24.8,-10.21 4.35,-3.66 7.25,-8.75 10.92,-15.2 5.55,-9.76 13.11,-23 30.25,-38.44 h 38.69 c 0.2,0.7 0.42,1.43 0.62,2.11 2.95,10 5.73,19.38 7.63,27.18 3.18,13.15 16.56,28.3 38.42,30.51 1.13,0.11 2.21,0.16 3.26,0.16 20.68,0 24.19,-22 27.31,-41.59 1,-6.24 2,-12.55 3.46,-18.37 h 57 v 0.32 c 1.49,16.66 2.31,24.86 4.83,29.13 7.12,12.12 19.58,23.65 30.47,23.65 a 15.72,15.72 0 0 0 2.06,-0.14 c 10.23,-1.45 15.06,-9.1 20.65,-18 5,-7.84 11.11,-17.6 23.2,-27.73 2.94,-2.46 6,-4.88 9.06,-7.26 H 754 a 20.71,20.71 0 1 0 -2.16,-25.71 h -61 C 700,479 707,473.42 710.15,468.7 a 93,93 0 0 0 10,-19.82 l 76.07,-26.37 a 20.52,20.52 0 0 0 8.41,1.8 20.74,20.74 0 0 0 0,-41.47 M 195.38,505.78 a 8.71,8.71 0 1 1 8.71,-8.7 8.71,8.71 0 0 1 -8.71,8.7 m 64.46,-20.23 13.51,-16.83 h 10 c 0.39,4.81 1,10.54 1.88,16.83 z m 509.26,2.81 a 8.71,8.71 0 1 1 -8.72,8.72 8.72,8.72 0 0 1 8.72,-8.72 m -106,-200.87 c 3.22,0.23 7.58,5.62 10.8,11.72 -1,0.72 -2,1.37 -2.85,2 l -0.6,0.4 c -0.67,0.45 -1.31,0.87 -1.89,1.24 l -0.72,0.46 c -0.47,0.3 -0.91,0.58 -1.31,0.82 -0.23,0.14 -0.43,0.27 -0.65,0.39 l -1,0.57 -0.53,0.3 -0.72,0.4 -0.38,0.2 -0.56,0.28 -0.22,0.1 a 4.31,4.31 0 0 1 -0.5,0.22 c -0.26,0 -0.6,-0.11 -1,-0.2 l -0.4,-0.11 -0.93,-0.26 -0.59,-0.18 c -0.34,-0.1 -0.69,-0.21 -1.06,-0.34 l -0.73,-0.25 -1.21,-0.43 -0.81,-0.3 -1.41,-0.56 -0.81,-0.33 c -0.6,-0.24 -1.2,-0.5 -1.82,-0.77 l -0.58,-0.25 c -0.82,-0.36 -1.66,-0.75 -2.52,-1.16 a 14,14 0 0 1 3.65,-7.85 c 3.22,-3.75 8,-6.33 11.3,-6.06 m -111.4,-11 c 1,-2 2.9,-5.31 6.49,-10.89 5.28,0.37 15,2.89 23,5.33 A 97.05,97.05 0 0 1 569,281.4 c -9.21,-2 -14.62,-3.76 -17.34,-4.94 m -142,27.93 c 2.14,-2.08 7.41,-6 20.15,-11.81 5.6,3.14 12.19,11.67 16.7,18.81 a 102.45,102.45 0 0 1 -15.4,4.24 h -0.19 c -5.88,-2.59 -17.56,-7.86 -21.26,-11.22 m -61.73,239.45 c -3.09,5.43 -5.53,9.72 -8.27,12 -8.81,7.44 -19.32,9.56 -24.43,5 -3.25,-3.26 -9.26,-25.82 -14,-49.59 h 70.18 c -12.26,12.86 -18.62,24 -23.52,32.6 M 422.41,471 a 2.13,2.13 0 0 0 -0.25,0 5.89,5.89 0 0 0 -4.07,3.63 88.87,88.87 0 0 1 -7.58,5.41 c -2.92,1.86 -5.66,3.69 -8.31,5.52 H 296.84 c -0.89,-6.16 -1.57,-11.9 -1.93,-16.83 h 129.85 c -0.77,0.75 -1.54,1.5 -2.35,2.24 m -125.62,-27.4 c 2.77,-13.43 7.58,-27.65 11.69,-39.73 1.83,-5.37 3.56,-10.45 4.85,-14.75 5.05,-16.77 17,-50.72 17.08,-51 0.08,-0.28 0.14,-0.45 0.19,-0.67 a 66.65,66.65 0 0 0 1.1,-12.06 c 0.5,-15.25 1,-31 31.11,-41.81 3.26,-1.17 6.33,-2.14 9.28,-3 -11.34,7.92 -15.48,15.38 -12.86,22.8 4.14,11.76 13,16.2 21.56,20.49 8.19,4.1 17.47,8.75 25.89,20.86 3.54,5.1 6.87,10.94 10.1,16.59 7.92,13.87 14.75,25.85 24.66,28 a 13.79,13.79 0 0 0 3,0.32 14.86,14.86 0 0 0 1.72,-0.13 c 2.83,15.8 3.11,35.6 -4.48,54.15 z m 195.92,84.2 c -3.63,22.82 -6.46,32.75 -17.73,31.55 -15.44,-1.55 -25.84,-12 -28.15,-21.55 -1.88,-7.75 -4.57,-16.86 -7.42,-26.51 h 56.31 c -1.24,5.49 -2.14,11.1 -3,16.51 m 14.36,-42.22 h -75 c -0.54,-2 -1.08,-4 -1.6,-5.95 a 87.6,87.6 0 0 0 10.12,-10.88 h 91 c -5.38,3.5 -10.85,6.7 -16.28,9.87 a 32.23,32.23 0 0 0 -8.28,7 m 19.73,0 a 198.59,198.59 0 0 0 24.89,-16.83 h 7.64 c 1.15,5.4 2,11.1 2.81,16.83 z m 42.57,-56.32 a 96.28,96.28 0 0 1 -9.31,14.34 H 454.29 c 10.17,-29.44 4,-60.65 -2.35,-77.62 7.61,-9.7 15.23,-18.07 21.51,-24.89 9.94,-10.8 13.38,-14.75 13.75,-19 0.07,-0.88 0.12,-1.85 0.18,-2.92 0.41,-7.63 1.1,-20.4 14.23,-40.72 a 41.24,41.24 0 0 1 7.11,-8.41 c -1.6,4.13 -2.11,7.79 -1.41,11 1.6,7.3 7.62,12.89 13.43,18.3 5.81,5.41 11.55,10.74 12.68,17.08 a 92.67,92.67 0 0 1 1,11.59 c 0.61,12.46 1.36,28 16.38,40.65 v 0 a 87.64,87.64 0 0 1 8.94,9 c 4.37,4.9 8.18,9.17 13.66,9.17 0.37,0 0.75,0 1.15,-0.06 a 11.29,11.29 0 0 0 5.24,-2 c 0.54,13.37 -1.92,28.39 -10.46,44.51 M 612.9,540 c -5.21,8.25 -7.71,11.93 -12.33,12.58 -4,0.53 -13.75,-5.94 -20.71,-17.79 -1.28,-2.38 -2.33,-13.91 -3.19,-23.49 h 59.82 c -12.16,10.69 -18.75,21 -23.59,28.7 m 87.48,-77.86 c -3.13,4.63 -14.72,12.76 -27,21.37 l -3,2.08 H 574 c -0.73,-5.67 -1.61,-11.33 -2.69,-16.83 H 660.8 A 12.6,12.6 0 0 0 665,468 l 40,-13.88 a 75.23,75.23 0 0 1 -4.6,8 m 14,-37.82 -55.62,19.29 h -84.23 c 1.82,-2.79 3.59,-5.7 5.24,-8.83 13.09,-24.71 13.48,-47.31 10.05,-65.63 a 1.34,1.34 0 0 0 0,-0.2 c -0.49,-2.58 -1.07,-5.06 -1.7,-7.48 0,-0.12 0,-0.24 -0.09,-0.36 a 5.5,5.5 0 0 0 0.84,-1 c 4.52,-6.94 10.08,-13.38 15,-19.05 7.12,-8.25 13.27,-15.37 15.37,-22.62 0.9,-3.12 1.68,-6.7 2.51,-10.48 0.27,-1.22 0.54,-2.47 0.82,-3.73 l 0.55,1.42 c 0.68,1.72 1.25,3.18 1.58,4.26 1.28,4 -0.55,7.86 -3.89,14.28 -2.9,5.56 -6.18,11.87 -7.36,20.1 -2.21,15.52 0.57,28.37 8,37.16 6.52,7.65 16.06,11.65 28.33,11.87 h 2 c 33.25,0 42.13,-16.26 43.67,-30.06 0.73,-6.61 -0.69,-13.2 -2.08,-19.58 -1.84,-8.51 -3.59,-16.6 -0.79,-25 a 86,86 0 0 0 11.4,34.83 c 10,17.13 14.36,44.87 10.31,70.79 m 90.29,-12 a 8.72,8.72 0 1 1 8.71,-8.72 8.73,8.73 0 0 1 -8.71,8.72"
        id="g65468"/>
  </g>
</svg>
