<?xml version="1.0" encoding="UTF-8" standalone="no"?>
<svg
   xml:space="preserve"
   viewBox="0 0 512 512"
   y="0px"
   x="0px"
   id="Icon"
   version="1.1"
   width="512"
   height="512"
   xmlns="http://www.w3.org/2000/svg"
   xmlns:svg="http://www.w3.org/2000/svg"
   xmlns:rdf="http://www.w3.org/1999/02/22-rdf-syntax-ns#"
   xmlns:cc="http://creativecommons.org/ns#"
   xmlns:dc="http://purl.org/dc/elements/1.1/"><metadata
   id="metadata55"><rdf:RDF><cc:Work
       rdf:about=""><dc:format>image/svg+xml</dc:format><dc:type
         rdf:resource="http://purl.org/dc/dcmitype/StillImage" /></cc:Work></rdf:RDF></metadata><defs
   id="defs53" />


<g
   id="icon-detailcolor"
   transform="translate(-0.00917816,-77.807673)"
   style="fill:var(--icon-detail);fill-opacity:1;stroke-width:1.33333349"><path
     style="fill:#ffffff;fill-opacity:1;stroke:#ed1c24;stroke-width:15.8424;stroke-linecap:round;stroke-dasharray:none;stroke-opacity:1"
     d="M 94.350528,457.53997 H 417.96619"
     id="path1904" /><path
     style="fill:#ffffff;fill-opacity:1;stroke:#ed1c24;stroke-width:13.8;stroke-linecap:round;stroke-dasharray:none;stroke-opacity:1"
     d="m 256.15836,205.93227 v 92.45218 m 0,-92.45218 v 92.45218"
     id="path1906" /><path
     style="fill:#ffffff;fill-opacity:1;stroke:#ed1c24;stroke-width:13.8;stroke-linecap:round;stroke-dasharray:none;stroke-opacity:1"
     d="m 335.11547,226.5044 -23.92838,73.87475 m 23.92838,-73.87475 -23.92838,73.87475"
     id="path1906-3" /><path
     style="fill:#ffffff;fill-opacity:1;stroke:#ed1c24;stroke-width:13.8;stroke-linecap:round;stroke-dasharray:none;stroke-opacity:1"
     d="m 177.20124,226.5044 23.92838,73.87475 m -23.92838,-73.87475 23.92838,73.87475"
     id="path1906-3-6" /><path
     style="fill:#ffffff;fill-opacity:1;stroke:#ed1c24;stroke-width:13.8;stroke-linecap:round;stroke-dasharray:none;stroke-opacity:1"
     d="M 121.16617,276.10095 142.17251,308.513 M 121.16617,276.10095 142.17251,308.513"
     id="path1906-3-6-7" /><path
     style="fill:#ffffff;fill-opacity:1;stroke:#ed1c24;stroke-width:13.8;stroke-linecap:round;stroke-dasharray:none;stroke-opacity:1"
     d="M 391.15055,276.10095 370.14421,308.513 m 21.00634,-32.41205 -21.00634,32.41205"
     id="path1906-3-6-7-6" /></g>
     
<path
   style="fill:var(--icon-main);fill-opacity:1;stroke-width:1.33333349"
   d="m 94.498634,267.94428 c -11.547946,0 -21.107421,9.55948 -21.107421,21.10742 v 40.45508 c 0,11.54795 9.559475,21.10743 21.107421,21.10742 H 417.50254 c 11.54794,0 21.10742,-9.55947 21.10742,-21.10742 V 289.0517 c 0,-11.54794 -9.55948,-21.10742 -21.10742,-21.10742 z m 0,16.83008 H 417.50254 c 2.51525,0 4.27734,1.7621 4.27734,4.27734 v 40.45508 c 0,2.51525 -1.76209,4.27735 -4.27734,4.27735 H 94.498634 c -2.515247,0 -4.277343,-1.7621 -4.277343,-4.27735 V 289.0517 c 0,-2.51524 1.762096,-4.27734 4.277343,-4.27734 z"
   id="icon-maincolor" /></svg>
